# Blender v2.78 (sub 0) OBJ File: ''
# www.blender.org
mtllib Fighter.mtl
o Cube
v -0.400000 0.000000 -0.200000
v 0.400000 0.000000 -0.200000
v 0.400000 0.000000 0.200000
v -0.400000 0.000000 0.200000
v -0.500000 1.800000 -0.250000
v 0.500000 1.800000 -0.250000
v 0.500000 1.800000 0.250000
v -0.500000 1.800000 0.250000
v -0.192000 1.850000 0.240000
v -0.192000 1.850000 -0.240000
v 0.192000 1.850000 0.240000
v 0.192000 1.850000 -0.240000
v -0.192000 2.350000 0.240000
v -0.192000 2.350000 -0.240000
v 0.192000 2.350000 0.240000
v 0.192000 2.350000 -0.240000
vn 0.0000 -1.0000 0.0000
vn 0.0000 1.0000 -0.0000
vn 0.0000 -0.0278 -0.9996
vn 0.9985 -0.0555 0.0000
vn -0.0000 -0.0278 0.9996
vn -0.9985 -0.0555 -0.0000
vn 1.0000 0.0000 -0.0000
vn -1.0000 0.0000 0.0000
vn -0.0000 0.0000 -1.0000
vn 0.0000 0.0000 1.0000
usemtl Material
s off
f 1//1 2//1 3//1 4//1
f 5//2 8//2 7//2 6//2
f 1//3 5//3 6//3 2//3
f 2//4 6//4 7//4 3//4
f 3//5 7//5 8//5 4//5
f 5//6 1//6 4//6 8//6
f 9//1 10//1 12//1 11//1
f 13//2 15//2 16//2 14//2
f 12//7 16//7 15//7 11//7
f 9//8 13//8 14//8 10//8
f 10//9 14//9 16//9 12//9
f 11//10 15//10 13//10 9//10
